<?xml version="1.0" encoding="UTF-8" standalone="no"?>
<!-- Generator: Adobe Illustrator 22.0.1, SVG Export Plug-In . SVG Version: 6.00 Build 0)  -->

<svg
   version="1.1"
   id="Camada_1"
   x="0px"
   y="0px"
   viewBox="0 0 500 250"
   style="enable-background:new 0 0 500 250;"
   xml:space="preserve"
   sodipodi:docname="Logo_silvaLab2.svg"
   inkscape:version="1.2.2 (732a01da63, 2022-12-09)"
   xmlns:inkscape="http://www.inkscape.org/namespaces/inkscape"
   xmlns:sodipodi="http://sodipodi.sourceforge.net/DTD/sodipodi-0.dtd"
   xmlns="http://www.w3.org/2000/svg"
   xmlns:svg="http://www.w3.org/2000/svg"><defs
   id="defs212" /><sodipodi:namedview
   id="namedview210"
   pagecolor="#ffffff"
   bordercolor="#000000"
   borderopacity="0.25"
   inkscape:showpageshadow="2"
   inkscape:pageopacity="0.0"
   inkscape:pagecheckerboard="0"
   inkscape:deskcolor="#d1d1d1"
   showgrid="false"
   inkscape:zoom="2.42"
   inkscape:cx="250"
   inkscape:cy="124.79339"
   inkscape:window-width="1920"
   inkscape:window-height="1017"
   inkscape:window-x="-8"
   inkscape:window-y="-8"
   inkscape:window-maximized="1"
   inkscape:current-layer="Camada_1" />
<style
   type="text/css"
   id="style167">
	.st0{fill:#4A72B2;}
	.st1{fill:none;stroke:#000000;stroke-width:6;stroke-miterlimit:10;}
</style>
<g
   id="g173">
	<path
   class="st0"
   d="M27,135.3l91.9,91.9c7.1,7.1,18.6,7.1,25.7,0l0,0c7.1-7.1,7.1-18.6,0-25.7l-91.9-91.9   c-7.1-7.1-18.6-7.1-25.7,0l0,0C19.9,116.7,19.9,128.2,27,135.3z"
   id="path169" />
	<path
   d="M52.6,135.2l91.9-91.9c7.1-7.1,7.1-18.6,0-25.7l0,0c-7.1-7.1-18.6-7.1-25.7,0l-91.9,91.9c-7.1,7.1-7.1,18.6,0,25.7l0,0   C34,142.3,45.6,142.3,52.6,135.2z"
   id="path171" />
</g>
<g
   id="g179">
	<path
   class="st0"
   d="M444.4,109.6l-91.9,91.9c-7.1,7.1-7.1,18.6,0,25.7l0,0c7.1,7.1,18.6,7.1,25.7,0l91.9-91.9   c7.1-7.1,7.1-18.6,0-25.7l0,0C463,102.5,451.5,102.5,444.4,109.6z"
   id="path175" />
	<path
   d="M470,109.5l-91.9-91.9c-7.1-7.1-18.6-7.1-25.7,0l0,0c-7.1,7.1-7.1,18.6,0,25.7l91.9,91.9c7.1,7.1,18.6,7.1,25.7,0l0,0   C477.1,128.2,477.1,116.6,470,109.5z"
   id="path177" />
</g>
<g
   id="g189">
	<path
   class="st0"
   d="M229,97.9c7.7-2.9,8.3-8.3,15.7-9.8c5-1,9.8,0.4,14.3,2.9c0.8,2.9,0.8,6.1,0,9.3l-20.4,80   c-2.5,10-12.8,16.1-22.8,13.5l-2.7-0.7c-10-2.5-16.1-12.8-13.5-22.8l18.1-71C221.8,99.6,225.6,99.2,229,97.9z"
   id="path181" />
	<path
   class="st1"
   d="M278.3,27.8l-23.6-5.3l0,0l-23.6-5.3c-5.5-1.2-11.1,2.3-12.3,7.8c-1.2,5.5,2.3,11.1,7.8,12.3l3.1,0.7   c0,0.1-0.1,0.3-0.1,0.4l-29.5,131.7c-2.5,11.3,4.6,22.6,15.9,25.1l0,0c11.3,2.5,22.6-4.6,25.1-15.9l29.5-131.7c0-0.1,0-0.3,0.1-0.4   l3.1,0.7c5.5,1.2,11.1-2.3,12.3-7.8S283.9,29,278.3,27.8z"
   id="path183" />
	<circle
   class="st0"
   cx="235.5"
   cy="74"
   r="5.4"
   id="circle185" />
	<circle
   class="st0"
   cx="251.3"
   cy="63.5"
   r="3.3"
   id="circle187" />
</g>
<g
   id="g207">
	<path
   d="M182.4,224.8c0-1.3-0.5-2.4-1.4-3.2c-0.9-0.8-2.6-1.6-4.9-2.2c-3.4-0.9-6-2.2-7.8-3.7c-1.8-1.5-2.7-3.5-2.7-5.9   c0-2.5,1-4.6,3-6.2c2-1.6,4.6-2.5,7.7-2.5c3.4,0,6.1,0.9,8.1,2.7c2,1.8,3,4.1,2.9,6.7l0,0.1h-5c0-1.6-0.5-3-1.6-3.9   c-1.1-1-2.6-1.5-4.4-1.5c-1.8,0-3.1,0.4-4.1,1.2c-1,0.8-1.4,1.9-1.4,3.2c0,1.2,0.5,2.2,1.6,3c1,0.8,2.8,1.5,5.2,2.2   c3.3,0.9,5.8,2.2,7.5,3.8s2.6,3.6,2.6,6.1c0,2.6-1,4.7-3.1,6.2c-2,1.5-4.7,2.3-8,2.3c-3.2,0-6-0.8-8.3-2.5   c-2.4-1.7-3.5-4.1-3.4-7.2l0-0.1h5c0,1.9,0.6,3.3,1.9,4.2c1.3,1,2.9,1.4,4.7,1.4c1.8,0,3.3-0.4,4.3-1.2S182.4,226.1,182.4,224.8z"
   id="path191" />
	<path
   d="M198,203.8h-5.2v-4.6h5.2V203.8z M198,232.8h-5.2v-23.3h5.2V232.8z"
   id="path193" />
	<path
   d="M209.4,232.8h-5.2v-33.5h5.2V232.8z"
   id="path195" />
	<path
   d="M223.3,224.9l0.4,1.9h0.1l0.4-1.9l4.6-15.4h5.4l-8.3,23.3h-4.5l-8.3-23.3h5.4L223.3,224.9z"
   id="path197" />
	<path
   d="M251.3,232.8c-0.2-0.6-0.3-1.2-0.5-1.7c-0.1-0.6-0.2-1.1-0.2-1.7c-0.7,1.1-1.6,2-2.8,2.7c-1.2,0.7-2.5,1.1-3.9,1.1   c-2.4,0-4.3-0.6-5.6-1.9c-1.3-1.2-1.9-3-1.9-5.1c0-2.3,0.9-4,2.7-5.3c1.8-1.3,4.3-1.9,7.5-1.9h4.1v-2c0-1.2-0.4-2.2-1.1-2.9   c-0.7-0.7-1.7-1-3.1-1c-1.2,0-2.1,0.3-2.8,0.8s-1.1,1.3-1.1,2.2l-5,0l0-0.1c-0.1-1.8,0.7-3.5,2.5-4.9c1.7-1.4,4-2.1,6.8-2.1   c2.7,0,4.9,0.7,6.6,2.1s2.5,3.4,2.5,5.9v10.3c0,1,0.1,1.9,0.2,2.8c0.1,0.9,0.3,1.7,0.6,2.6H251.3z M244.9,229.1   c1.3,0,2.5-0.3,3.5-1s1.8-1.4,2.1-2.3v-3.4h-4.2c-1.5,0-2.7,0.4-3.6,1.1c-0.9,0.8-1.3,1.6-1.3,2.7c0,0.9,0.3,1.6,0.9,2.1   C243,228.8,243.8,229.1,244.9,229.1z"
   id="path199" />
	<path
   class="st0"
   d="M267,228.6h14.7v4.2h-19.9v-31.3h5.2V228.6z"
   id="path201" />
	<path
   class="st0"
   d="M299.5,232.8c-0.2-0.6-0.3-1.2-0.5-1.7c-0.1-0.6-0.2-1.1-0.2-1.7c-0.7,1.1-1.6,2-2.8,2.7   c-1.2,0.7-2.5,1.1-3.9,1.1c-2.4,0-4.3-0.6-5.6-1.9c-1.3-1.2-1.9-3-1.9-5.1c0-2.3,0.9-4,2.7-5.3c1.8-1.3,4.3-1.9,7.5-1.9h4.1v-2   c0-1.2-0.4-2.2-1.1-2.9c-0.7-0.7-1.7-1-3.1-1c-1.2,0-2.1,0.3-2.8,0.8s-1.1,1.3-1.1,2.2l-5,0l0-0.1c-0.1-1.8,0.7-3.5,2.5-4.9   c1.7-1.4,4-2.1,6.8-2.1c2.7,0,4.9,0.7,6.6,2.1s2.5,3.4,2.5,5.9v10.3c0,1,0.1,1.9,0.2,2.8c0.1,0.9,0.3,1.7,0.6,2.6H299.5z    M293.2,229.1c1.3,0,2.5-0.3,3.5-1s1.8-1.4,2.1-2.3v-3.4h-4.2c-1.5,0-2.7,0.4-3.6,1.1c-0.9,0.8-1.3,1.6-1.3,2.7   c0,0.9,0.3,1.6,0.9,2.1C291.2,228.8,292.1,229.1,293.2,229.1z"
   id="path203" />
	<path
   class="st0"
   d="M329.9,221.9c0,3.4-0.8,6.1-2.4,8.2c-1.6,2.1-3.8,3.1-6.7,3.1c-1.5,0-2.7-0.3-3.8-0.9c-1.1-0.6-2-1.5-2.7-2.6   l-0.6,3.1h-4.2v-33.5h5.2v12.9c0.7-1,1.6-1.7,2.6-2.3c1-0.5,2.2-0.8,3.5-0.8c2.9,0,5.2,1.1,6.7,3.4c1.6,2.3,2.4,5.3,2.4,9V221.9z    M324.7,221.5c0-2.4-0.4-4.4-1.2-5.9c-0.8-1.5-2.2-2.2-4-2.2c-1.2,0-2.1,0.3-2.9,0.8c-0.8,0.5-1.4,1.2-1.9,2.2v9.8   c0.4,0.9,1.1,1.7,1.8,2.2c0.8,0.5,1.8,0.8,3,0.8c1.8,0,3.1-0.6,3.9-1.9c0.8-1.3,1.2-3,1.2-5.2V221.5z"
   id="path205" />
</g>
<text
   xml:space="preserve"
   style="font-style:normal;font-variant:normal;font-weight:bold;font-stretch:normal;font-size:16px;font-family:sans-serif;-inkscape-font-specification:'sans-serif Bold';white-space:pre;inline-size:129.752;fill:#ffffff"
   x="18.181818"
   y="29.338842"
   id="text426"
   transform="matrix(0.66281031,0.66847307,-0.87432801,0.86692143,378.71675,-0.07627112)"><tspan
     x="18.181818"
     y="29.338842"
     id="tspan789">Dish Showfest</tspan></text><text
   xml:space="preserve"
   style="fill:#000000"
   x="61.570248"
   y="8.2644625"
   id="text480"><tspan
     sodipodi:role="line"
     id="tspan478"
     x="61.570248"
     y="8.2644625" /></text></svg>
