<?xml version="1.0" standalone="no"?>
<!DOCTYPE svg PUBLIC "-//W3C//DTD SVG 20010904//EN"
 "http://www.w3.org/TR/2001/REC-SVG-20010904/DTD/svg10.dtd">
<svg version="1.0" xmlns="http://www.w3.org/2000/svg"
 width="1000.000000pt" height="1000.000000pt" viewBox="0 0 1000.000000 1000.000000"
 preserveAspectRatio="xMidYMid meet">
<metadata>
Created by potrace 1.14, written by Peter Selinger 2001-2017
</metadata>
<g transform="translate(0.000000,1000.000000) scale(0.100000,-0.100000)"
fill="#000000" stroke="none">
<path d="M2498 7226 c-31 -13 -74 -37 -95 -54 -21 -17 -459 -453 -974 -969
-712 -713 -941 -949 -958 -984 -52 -112 -51 -231 2 -327 25 -45 238 -262 1002
-1023 924 -920 973 -967 1028 -988 78 -28 186 -29 262 0 73 27 156 104 192
177 25 51 28 68 28 157 0 90 -3 105 -28 155 -23 44 -187 214 -840 867 l-812
813 821 822 c788 790 823 825 844 883 31 83 31 188 0 270 -32 82 -122 173
-203 203 -81 31 -192 30 -269 -2z"/>
<path d="M7172 7229 c-76 -30 -162 -113 -198 -191 -24 -54 -28 -75 -28 -148 0
-158 -58 -90 868 -1017 l821 -823 -816 -817 c-923 -926 -864 -855 -864 -1018
0 -82 3 -97 33 -157 40 -82 111 -149 190 -178 83 -32 214 -25 292 14 45 23
226 199 1021 994 928 928 968 969 990 1027 16 43 23 82 23 140 1 70 -3 89 -32
150 -31 67 -74 111 -990 1026 -1083 1082 -1002 1012 -1167 1016 -72 2 -101 -1
-143 -18z m448 -434 c0 -67 -52 -131 -125 -155 -46 -15 -79 -3 -131 51 l-38
39 99 101 100 100 48 -50 c38 -40 47 -56 47 -86z m110 -50 c10 -13 9 -19 -5
-35 -17 -19 -19 -19 -37 -3 -17 15 -17 17 -2 35 21 22 28 22 44 3z m-60 -61
c12 -13 3 -26 -60 -89 -70 -71 -75 -74 -92 -58 -18 16 -16 20 54 90 40 40 75
73 79 73 4 0 12 -7 19 -16z m86 -82 c12 -9 29 -29 38 -43 15 -24 15 -27 -3
-43 -18 -17 -19 -17 -25 2 -10 30 -44 58 -57 45 -7 -7 -3 -23 11 -52 21 -39
21 -43 6 -67 -10 -14 -28 -30 -42 -36 -20 -10 -29 -8 -51 8 -15 11 -36 32 -46
47 -17 22 -18 29 -7 42 17 21 23 19 42 -15 10 -18 25 -30 38 -30 24 0 26 18 5
46 -21 28 -18 62 10 89 28 29 52 31 81 7z m174 -57 c11 -14 7 -22 -25 -55 -31
-32 -35 -40 -20 -40 10 0 27 -7 37 -17 33 -30 22 -61 -47 -132 -61 -63 -65
-65 -82 -48 -16 16 -15 20 36 71 34 34 52 60 49 72 -6 34 -35 26 -92 -27 -53
-49 -58 -51 -74 -35 -15 15 -9 23 88 121 58 58 108 105 111 105 4 0 12 -7 19
-15z m259 -280 c36 -41 38 -55 13 -78 -16 -15 -18 -14 -31 14 -17 38 -48 56
-67 37 -12 -11 -11 -19 6 -51 11 -20 20 -48 20 -61 0 -31 -32 -70 -69 -86 -26
-10 -35 -10 -62 6 -17 11 -40 35 -50 54 -19 34 -19 35 1 54 11 11 21 18 22 15
2 -2 10 -17 18 -33 21 -42 46 -55 65 -35 14 14 14 20 -4 60 -27 58 -26 62 10
104 24 27 39 35 64 35 25 0 40 -8 64 -35z m97 -154 l-35 -34 32 -16 c23 -11
33 -24 35 -44 3 -23 -8 -40 -62 -95 -62 -63 -66 -66 -82 -50 -17 16 -15 20 34
72 51 53 65 85 40 87 -31 3 -46 -5 -91 -49 -44 -44 -48 -45 -64 -29 -17 16
-12 23 87 122 99 99 105 104 122 88 18 -16 18 -18 -16 -52z m152 -197 c12 -14
22 -38 22 -53 0 -39 -38 -90 -83 -114 -32 -17 -42 -17 -68 -7 -36 15 -59 46
-59 80 0 35 42 94 82 113 41 21 76 14 106 -19z m79 -163 c-53 -74 -53 -76 10
-33 55 37 61 39 76 25 15 -15 13 -20 -19 -66 -19 -27 -34 -51 -32 -53 2 -2 27
12 55 31 49 33 51 33 68 15 16 -18 13 -21 -73 -78 l-89 -61 -21 21 -21 21 34
50 c19 28 33 53 31 55 -2 2 -26 -13 -53 -32 l-49 -35 -21 21 -22 21 61 89 c58
87 60 89 79 72 18 -17 18 -18 -14 -63z m310 -115 c23 -20 25 -26 14 -39 -10
-13 -17 -14 -31 -5 -9 6 -25 8 -35 4 -16 -6 -17 -8 -1 -25 15 -16 15 -19 -2
-35 -17 -15 -20 -15 -32 -1 -12 14 -20 9 -72 -42 -55 -54 -59 -56 -75 -40 -16
16 -14 20 41 76 38 38 54 61 46 66 -16 10 17 46 35 38 8 -2 24 2 37 11 30 21
42 20 75 -8z m22 -141 c50 -25 56 -86 15 -135 l-27 -31 -43 42 c-44 43 -50 46
-54 19 -5 -31 1 -40 36 -58 34 -17 34 -18 16 -35 -18 -16 -21 -16 -53 6 -66
45 -70 98 -11 161 44 46 76 55 121 31z m141 -138 c9 -7 23 -23 33 -36 15 -23
15 -26 0 -43 -15 -17 -17 -17 -34 12 -18 29 -42 39 -53 22 -3 -5 4 -21 15 -38
25 -39 24 -60 -6 -89 -32 -33 -57 -31 -100 6 -37 33 -44 59 -21 78 11 9 18 4
35 -24 21 -37 51 -47 51 -17 -1 9 -7 28 -15 42 -19 34 -19 43 6 74 22 28 63
34 89 13z m155 -117 c-17 -19 -17 -21 -2 -38 15 -17 15 -19 0 -35 -16 -15 -18
-16 -35 0 -18 16 -21 15 -60 -25 -40 -39 -41 -42 -25 -60 16 -17 16 -21 2 -32
-19 -16 -39 -8 -60 24 -15 22 -15 27 -2 53 9 15 31 43 50 62 20 18 33 39 31
46 -6 14 21 39 34 31 5 -3 18 4 28 15 l18 20 20 -20 c19 -20 19 -21 1 -41z"/>
<path d="M7465 6790 c-49 -50 -56 -61 -46 -74 20 -24 48 -28 79 -12 57 29 80
97 44 129 -17 16 -22 13 -77 -43z"/>
<path d="M8329 5861 c-36 -36 -35 -65 2 -69 19 -2 33 5 53 29 52 61 2 97 -55
40z"/>
<path d="M8795 5449 c-7 -10 21 -49 35 -49 5 0 11 7 14 16 12 30 -33 60 -49
33z"/>
<path d="M4495 7208 c-121 -43 -199 -168 -181 -289 14 -93 100 -197 177 -214
16 -4 29 -10 29 -13 0 -4 -131 -590 -290 -1302 -160 -712 -293 -1322 -296
-1355 -7 -76 15 -177 57 -256 123 -231 408 -316 648 -194 77 38 165 130 202
208 23 51 93 348 323 1373 l293 1309 69 5 c157 13 258 114 258 260 0 108 -59
203 -151 243 -56 25 -1015 237 -1065 236 -24 0 -56 -5 -73 -11z m588 -217
c267 -60 499 -117 515 -126 61 -36 83 -111 53 -179 -34 -78 -100 -102 -207
-75 -76 20 -73 29 -185 -471 -54 -244 -101 -445 -102 -447 -2 -1 -28 7 -58 19
-40 16 -76 22 -139 22 -102 0 -137 -15 -232 -100 -87 -79 -167 -114 -269 -121
-76 -6 -81 -5 -76 13 25 87 267 1199 267 1226 l0 36 -72 17 c-84 21 -133 62
-144 120 -16 87 52 174 137 175 15 0 245 -49 512 -109z"/>
<path d="M4987 6272 c-22 -24 -21 -65 1 -85 40 -36 95 -11 95 43 0 54 -61 81
-96 42z"/>
<path d="M4639 6091 c-64 -65 -20 -171 71 -171 33 0 48 6 71 29 64 65 20 171
-71 171 -33 0 -48 -6 -71 -29z"/>
<path d="M3860 3470 l0 -50 50 0 50 0 0 50 0 50 -50 0 -50 0 0 -50z"/>
<path d="M4082 3178 l3 -333 50 0 50 0 3 333 2 332 -55 0 -55 0 2 -332z"/>
<path d="M6200 3180 l0 -330 34 0 c30 0 35 4 41 30 l7 31 33 -30 c91 -80 232
-32 265 89 19 71 9 197 -21 250 -37 67 -81 93 -151 88 -42 -3 -64 -10 -81 -26
-13 -12 -26 -22 -30 -22 -4 0 -7 56 -7 125 l0 125 -45 0 -45 0 0 -330z m262
21 c46 -51 50 -180 8 -249 -31 -51 -107 -55 -157 -9 -21 19 -23 29 -23 124 0
116 7 138 53 159 43 19 87 10 119 -25z"/>
<path d="M3446 3466 c-81 -30 -126 -80 -133 -147 -8 -87 62 -162 188 -200 83
-25 131 -55 143 -91 22 -62 -45 -115 -132 -105 -55 6 -94 34 -107 75 -9 30
-12 32 -58 32 l-50 0 6 -39 c12 -91 85 -142 213 -149 72 -4 89 -1 138 21 76
35 98 72 94 154 -4 56 -8 67 -38 99 -41 42 -80 63 -172 93 -92 30 -118 53
-118 100 0 43 20 67 71 81 62 18 141 -21 151 -75 3 -17 12 -21 57 -23 l53 -3
-7 33 c-19 89 -91 145 -196 153 -43 4 -77 1 -103 -9z"/>
<path d="M5240 3155 l0 -305 195 0 195 0 0 35 0 34 -147 3 -148 3 -3 268 -2
267 -45 0 -45 0 0 -305z"/>
<path d="M4845 3301 c-48 -22 -81 -56 -90 -93 -7 -27 -6 -28 38 -28 37 0 51 5
75 30 57 56 142 26 142 -49 l0 -38 -82 -5 c-144 -8 -203 -55 -195 -156 5 -73
44 -113 116 -120 63 -6 92 2 130 34 l30 25 7 -25 c6 -24 11 -26 58 -26 l51 0
-3 162 c-1 90 -7 179 -12 198 -25 93 -161 139 -265 91z m163 -293 c-2 -35 -9
-46 -37 -65 -64 -43 -141 -22 -141 38 0 45 40 69 117 69 l64 0 -3 -42z"/>
<path d="M3860 3075 l0 -235 50 0 50 0 0 235 0 235 -50 0 -50 0 0 -235z"/>
<path d="M4297 3213 c19 -54 56 -159 82 -233 l48 -135 40 -3 c24 -2 44 2 50
10 9 12 163 439 163 453 0 3 -24 5 -52 3 l-53 -3 -51 -169 c-43 -141 -52 -164
-58 -140 -4 16 -27 93 -52 172 l-45 142 -53 0 -54 0 35 -97z"/>
<path d="M5805 3296 c-39 -18 -72 -54 -80 -88 -7 -28 -6 -28 39 -28 25 0 46 5
46 10 0 26 41 50 85 50 58 0 85 -25 85 -79 l0 -38 -82 -7 c-143 -12 -198 -54
-198 -152 0 -39 5 -51 33 -79 57 -57 156 -56 214 1 13 13 26 24 28 24 2 0 6
-13 10 -30 6 -28 10 -30 53 -30 l47 0 -3 172 c-4 190 -12 223 -65 262 -36 26
-166 34 -212 12z m175 -280 c0 -37 -5 -48 -30 -70 -51 -42 -125 -43 -152 -2
-15 22 -8 63 15 83 26 25 45 30 115 32 l52 1 0 -44z"/>
</g>
</svg>
