<?xml version="1.0" standalone="no"?>
<!DOCTYPE svg PUBLIC "-//W3C//DTD SVG 20010904//EN"
 "http://www.w3.org/TR/2001/REC-SVG-20010904/DTD/svg10.dtd">
<svg version="1.0" xmlns="http://www.w3.org/2000/svg"
 width="2667.000000pt" height="2667.000000pt" viewBox="0 0 2667.000000 2667.000000"
 preserveAspectRatio="xMidYMid meet">
<metadata>
Created by potrace 1.14, written by Peter Selinger 2001-2017
</metadata>
<g transform="translate(0.000000,2667.000000) scale(0.100000,-0.100000)"
fill="#000000" stroke="none">
<path d="M5626 18010 c-29 -4 -40 -10 -43 -25 -2 -11 -5 -1103 -7 -2427 l-3
-2408 36 -1 c20 0 1115 -1 2433 -2 l2398 -2 0 30 c1 39 1 869 0 915 l0 35
-1945 -2 -1945 -1 0 31 c-1 18 -1 893 -1 1945 0 1468 -3 1912 -12 1914 -32 4
-877 2 -911 -2z"/>
<path d="M12947 17978 c-2 -7 -191 -479 -420 -1048 -228 -569 -452 -1127 -497
-1240 -45 -113 -85 -214 -90 -225 -5 -11 -46 -112 -91 -225 -44 -113 -87 -218
-94 -235 -7 -16 -39 -95 -70 -175 -31 -80 -67 -170 -80 -200 -12 -30 -35 -86
-50 -125 -15 -38 -34 -83 -40 -100 -7 -16 -48 -118 -90 -225 -43 -107 -86
-214 -96 -237 -11 -23 -19 -46 -19 -51 0 -5 -6 -22 -14 -38 -33 -67 -277 -687
-272 -691 9 -9 167 -13 611 -15 l450 -1 24 59 c13 32 27 68 32 79 4 11 31 81
59 155 28 74 55 144 60 155 4 11 14 36 20 55 7 19 19 49 26 65 6 17 42 111 79
210 37 99 73 194 80 210 7 17 22 55 34 85 l22 56 934 0 934 0 30 -76 c43 -108
113 -291 250 -655 67 -176 130 -338 139 -359 l18 -39 470 1 c439 2 581 5 590
15 4 3 -95 263 -130 342 -7 17 -111 275 -231 575 -119 300 -223 559 -230 575
-7 17 -79 197 -160 400 -81 204 -153 384 -160 400 -15 33 -128 314 -155 385
-26 68 -260 651 -275 685 -10 23 -558 1390 -582 1453 -4 9 -115 12 -508 12
-393 0 -504 -3 -508 -12z m523 -1329 c0 -10 148 -388 170 -434 5 -11 23 -58
40 -105 17 -47 35 -94 40 -105 5 -11 41 -103 80 -205 90 -234 162 -419 210
-540 21 -52 36 -98 34 -101 -4 -7 -1153 -9 -1170 -2 -11 4 -2 32 91 268 13 33
94 242 180 465 86 223 165 424 176 447 10 24 19 46 19 49 0 7 98 253 107 267
6 11 23 8 23 -4z"/>
<path d="M16735 15571 l0 -2421 25 -1 c204 -4 3382 10 3476 15 187 11 409 156
498 325 l35 66 4 830 4 830 -34 74 c-48 102 -124 177 -235 235 -51 27 -82 48
-76 52 7 4 37 21 67 37 179 94 256 200 270 369 3 48 6 417 6 820 -2 805 -1
790 -63 888 -84 132 -268 259 -398 275 -27 4 -60 9 -74 12 -14 3 -808 8 -1765
10 l-1740 5 0 -2421z m2905 1555 c52 -9 76 -20 111 -52 l25 -24 -2 -462 c-2
-557 -3 -562 -91 -574 -21 -3 -467 -7 -990 -9 -745 -3 -953 -2 -954 8 -3 25
-5 1112 -3 1118 4 8 1851 3 1904 -5z m104 -2026 l33 -36 -3 -471 c-1 -328 -5
-482 -13 -506 -14 -42 -44 -55 -143 -63 -35 -3 -471 -7 -970 -8 -809 -1 -908
0 -909 14 -6 65 -3 1096 3 1100 4 3 448 5 988 5 l982 0 32 -35z"/>
<path d="M22678 17985 c-2 -2 -43 -5 -93 -8 -106 -7 -122 -10 -195 -39 -115
-45 -234 -137 -297 -229 -75 -109 -71 -66 -73 -681 -3 -941 -2 -1344 5 -1418
9 -97 49 -173 141 -266 79 -79 165 -130 304 -177 l75 -25 995 -6 c1277 -8
1449 -12 1472 -33 38 -34 41 -74 43 -541 l2 -453 -45 -47 -44 -47 -817 1
c-837 1 -1027 5 -1071 22 -56 22 -60 41 -63 307 l-3 190 -500 0 -500 1 2 -201
c2 -110 3 -328 4 -484 l2 -284 36 -71 c54 -104 153 -199 270 -259 51 -27 100
-50 110 -52 9 -2 34 -10 54 -18 30 -11 306 -13 1535 -12 1688 1 1533 -7 1710
80 121 60 211 146 271 262 l42 81 0 997 0 997 -42 81 c-49 96 -144 197 -228
244 -61 34 -178 78 -231 87 -74 13 -326 17 -1355 20 -1154 4 -1100 1 -1148 54
-27 30 -31 99 -30 462 2 548 3 553 64 585 49 26 170 29 980 29 789 -1 898 -4
936 -29 47 -31 52 -59 59 -320 2 -93 4 -173 5 -177 0 -7 980 -2 987 5 2 3 4
204 5 448 2 442 -1 484 -34 559 -59 136 -151 229 -293 296 -153 72 -32 67
-1617 69 -785 1 -1429 1 -1430 0z"/>
<path d="M3980 17119 c-1304 -1297 -2878 -2862 -3453 -3431 l-511 -508 1079
-1 c594 0 1680 0 2413 -1 733 -1 1335 1 1337 4 6 5 6 4800 1 4798 -1 -1 -390
-388 -866 -861z"/>
<path d="M34 12491 c-2 -2 186 -195 419 -428 232 -233 694 -698 1027 -1033
333 -335 1030 -1037 1550 -1560 520 -523 1140 -1148 1378 -1388 l432 -436 -2
2424 -3 2425 -2398 0 c-1319 0 -2401 -2 -2403 -4z"/>
<path d="M5587 10084 c1 -1318 3 -2397 5 -2399 4 -4 419 406 2018 1995 513
509 1120 1112 1350 1340 230 228 656 650 945 938 l526 522 -2423 0 -2423 0 2
-2396z m3383 1792 c0 -5 -66 -70 -1358 -1354 -1103 -1097 -1414 -1402 -1423
-1402 -9 0 -12 261 -13 1568 l-2 1192 1398 0 c769 0 1398 -2 1398 -4z"/>
<path d="M11003 12316 l2 -151 178 -3 177 -2 0 -28 c1 -15 1 -366 2 -780 l0
-752 226 2 227 3 0 778 -1 777 189 0 188 0 -3 153 -3 152 -592 1 -591 2 1
-152z"/>
<path d="M12402 11534 l0 -934 554 0 554 0 0 153 0 154 -312 0 c-172 1 -320 2
-328 2 -13 1 -15 34 -15 239 l0 237 35 1 c19 1 137 3 262 5 l226 3 4 30 c1 17
3 87 3 156 l0 125 -235 2 c-129 1 -249 2 -265 2 l-30 1 0 225 0 225 312 0
c244 0 313 3 313 13 1 6 2 74 3 150 2 115 0 138 -13 141 -8 3 -252 4 -541 4
l-527 0 0 -934z"/>
<path d="M13762 11534 l0 -934 227 2 226 3 0 344 0 344 23 2 c34 3 63 -33 112
-142 60 -132 108 -240 130 -288 10 -22 30 -67 45 -100 57 -131 69 -155 79
-156 48 -5 467 -5 470 0 2 3 -44 105 -103 226 -59 121 -107 222 -107 225 1 3
-9 19 -22 37 -12 17 -22 34 -22 37 0 3 -13 34 -29 68 -49 109 -50 104 11 131
95 42 135 87 169 192 15 43 19 559 6 682 -9 91 -54 163 -130 208 -77 44 -115
48 -613 51 l-472 2 0 -934z m739 609 c18 -18 19 -26 19 -258 1 -192 -3 -262
-16 -274 -2 -3 -67 -7 -144 -9 -113 -3 -140 -2 -141 9 -4 40 -5 535 -1 542 7
14 269 4 283 -10z"/>
<path d="M15295 11537 l0 -932 228 -3 227 -2 0 349 0 350 27 -5 c15 -3 36 -13
46 -21 18 -17 76 -131 145 -288 22 -49 52 -117 67 -150 26 -57 35 -76 84 -187
l21 -48 245 0 245 0 -112 223 c-148 296 -219 447 -221 471 -2 16 8 24 42 35
59 19 143 104 164 166 14 40 16 101 15 413 -1 350 -2 368 -21 397 -39 59 -83
97 -144 126 l-63 30 -497 4 -498 5 0 -933z m752 600 c16 -16 18 -41 18 -262 0
-185 -3 -247 -13 -257 -9 -9 -57 -14 -157 -16 l-145 -4 0 282 0 282 140 -4
c118 -2 142 -6 157 -21z"/>
<path d="M17241 12451 c-5 -9 -12 -32 -16 -51 -4 -19 -23 -100 -42 -180 -19
-80 -36 -152 -38 -160 -2 -8 -17 -70 -34 -137 -17 -67 -32 -130 -34 -140 -2
-10 -7 -29 -10 -43 -4 -14 -39 -155 -78 -315 -38 -159 -93 -382 -120 -495 -28
-113 -52 -212 -54 -221 -2 -9 -8 -34 -14 -55 -8 -28 -7 -40 1 -45 21 -13 413
-10 430 4 9 7 23 52 33 102 9 50 19 99 21 110 20 102 21 105 57 106 106 4 348
3 382 -1 44 -6 37 9 71 -155 3 -16 7 -34 8 -40 4 -17 20 -109 21 -120 0 -11
439 -15 449 -4 4 3 -7 64 -24 135 -26 106 -393 1585 -406 1634 -2 8 -7 31 -12
50 l-8 35 -288 1 c-250 0 -288 -2 -295 -15z m329 -601 c12 -58 24 -112 25
-120 19 -86 47 -222 51 -250 3 -19 8 -38 10 -41 2 -3 6 -21 9 -40 3 -19 10
-56 16 -82 6 -26 8 -51 5 -55 -9 -8 -294 -8 -302 1 -4 3 3 53 15 109 12 57 23
112 25 123 21 107 63 299 102 465 8 37 18 12 44 -110z"/>
<path d="M18845 12459 c-110 -13 -193 -63 -241 -144 -20 -36 -26 -62 -32 -147
-7 -105 -9 -1081 -3 -1240 5 -120 28 -182 87 -236 63 -57 100 -71 213 -80 159
-13 620 -8 666 6 73 24 125 55 161 96 69 78 67 69 72 504 l4 392 -109 1 c-59
0 -144 1 -187 2 l-80 2 -110 -133 c-61 -73 -112 -140 -114 -148 -3 -11 11 -14
68 -14 l71 0 -2 -167 c-2 -225 -5 -241 -38 -250 -43 -11 -220 -8 -233 5 -6 6
-13 44 -15 84 -8 128 -7 1061 1 1111 9 59 28 69 141 70 95 1 131 -7 137 -30 3
-10 6 -72 7 -138 1 -66 6 -124 10 -128 10 -10 391 184 434 221 32 28 13 151
-38 238 -31 53 -98 99 -158 109 -23 4 -51 9 -62 12 -33 8 -586 9 -650 2z"/>
<path d="M20084 11537 l1 -932 225 -3 225 -2 0 337 c-1 186 0 343 2 349 6 17
55 8 71 -13 20 -26 238 -495 295 -635 l13 -32 242 -1 c133 -1 242 1 242 4 0 3
-52 112 -116 241 -150 305 -195 399 -205 432 -7 26 -4 29 39 48 68 30 110 66
151 129 l36 56 -1 350 c0 256 -4 363 -13 397 -24 87 -112 164 -216 189 -34 8
-201 13 -521 15 l-471 3 1 -932z m726 608 c17 -9 33 -27 37 -43 9 -36 9 -397
0 -444 -10 -49 -34 -56 -192 -54 l-120 1 -1 270 c0 149 1 273 3 278 3 4 58 7
124 7 88 0 128 -4 149 -15z"/>
<path d="M21909 12459 c-130 -11 -229 -71 -271 -166 -27 -62 -30 -140 -31
-803 -1 -594 0 -606 21 -676 18 -58 30 -79 68 -113 25 -24 71 -54 102 -69 l57
-26 310 -1 c170 -1 342 1 381 6 83 9 146 36 197 84 47 45 68 86 76 154 3 31 6
358 6 726 l0 670 -26 56 c-28 60 -62 91 -147 133 l-52 27 -308 2 c-169 1 -341
-1 -383 -4z m416 -309 c20 -7 37 -20 41 -33 4 -12 8 -280 9 -595 l2 -574 -23
-15 c-39 -25 -172 -32 -244 -13 l-41 11 1 577 c1 317 4 590 7 605 3 17 15 32
27 36 33 13 184 13 221 1z"/>
<path d="M23165 11626 c3 -960 2 -953 74 -991 46 -23 118 -27 521 -26 415 0
497 4 541 27 38 19 69 66 75 111 2 21 7 417 10 879 l6 842 -234 0 -234 0 0
-755 c1 -415 -2 -762 -6 -773 -12 -31 -141 -42 -241 -19 -26 6 -50 16 -54 22
-4 6 -7 351 -7 766 l-1 756 -226 1 -227 1 3 -841z"/>
<path d="M24728 12467 c0 -1 -2 -422 -3 -934 l-2 -933 227 0 226 0 -1 325 c0
282 2 325 15 326 8 0 137 3 285 5 281 4 396 14 421 35 9 7 23 26 32 43 15 28
17 80 17 516 0 583 3 567 -100 602 -24 9 -1110 23 -1117 15z m729 -320 c13 -6
27 -22 30 -36 4 -14 7 -127 7 -251 0 -254 -5 -278 -62 -292 -18 -5 -83 -7
-144 -6 l-112 3 -1 290 c-1 160 1 294 3 298 6 12 252 7 279 -6z"/>
</g>
</svg>
