<?xml version="1.0" standalone="no"?>
<!DOCTYPE svg PUBLIC "-//W3C//DTD SVG 20010904//EN"
 "http://www.w3.org/TR/2001/REC-SVG-20010904/DTD/svg10.dtd">
<svg version="1.0" xmlns="http://www.w3.org/2000/svg"
 width="2000.000000pt" height="854.000000pt" viewBox="0 0 2000.000000 854.000000"
 preserveAspectRatio="xMidYMid meet">

<g transform="translate(0.000000,854.000000) scale(0.100000,-0.100000)"
fill="#000000" stroke="none">
<path d="M4187 7773 c-4 -3 -7 -825 -7 -1825 l0 -1818 1825 0 1825 0 0 365 0
365 -1460 0 -1460 0 0 1460 0 1460 -358 0 c-197 0 -362 -3 -365 -7z"/>
<path d="M8990 5958 c-397 -992 -724 -1809 -727 -1815 -4 -10 80 -13 398 -13
l404 0 162 423 161 422 702 0 702 0 161 -422 162 -423 404 0 c318 0 402 3 398
13 -3 6 -330 823 -727 1815 l-723 1802 -377 0 -377 0 -723 -1802z m1326 245
l220 -568 -223 -3 c-123 -1 -323 -1 -446 0 l-223 3 220 568 c121 312 222 567
226 567 4 0 106 -255 226 -567z"/>
<path d="M12550 5945 l0 -1815 1328 3 c1217 2 1331 4 1375 19 135 48 242 131
294 229 l28 54 3 623 3 623 -27 59 c-16 37 -45 77 -75 105 -47 44 -137 94
-169 95 -8 1 18 16 57 35 94 44 163 112 192 188 21 57 21 69 21 662 0 595 0
605 -22 662 -27 73 -119 168 -204 211 -129 65 -49 62 -1493 62 l-1311 0 0
-1815z m2207 1164 c15 -6 38 -20 51 -31 l22 -21 0 -366 c-1 -394 0 -390 -54
-411 -18 -6 -275 -10 -752 -10 l-724 0 0 425 0 425 714 0 c482 0 724 -3 743
-11z m48 -1514 l25 -24 0 -361 c0 -229 -4 -368 -10 -381 -27 -50 -17 -49 -795
-49 l-725 0 0 420 0 420 740 0 741 0 24 -25z"/>
<path d="M16845 7741 c-135 -39 -254 -131 -305 -236 l-25 -50 -3 -746 c-2
-737 -2 -748 18 -803 25 -66 98 -150 170 -196 28 -18 85 -44 128 -59 l77 -26
910 -5 c501 -3 918 -9 928 -14 44 -21 47 -46 47 -412 l0 -346 -34 -34 -34 -34
-691 0 c-742 0 -734 -1 -761 49 -6 11 -10 89 -10 180 l0 161 -375 0 -376 0 3
-362 3 -363 28 -57 c50 -101 137 -173 276 -227 l66 -26 1105 -3 c981 -2 1113
-1 1177 13 152 34 277 124 335 243 l33 67 0 745 0 745 -33 67 c-58 118 -168
200 -320 239 -72 18 -118 19 -953 19 -523 0 -888 4 -902 9 -14 6 -35 20 -46
32 -21 22 -21 31 -21 379 0 312 2 358 16 379 36 51 34 51 741 51 408 0 672 -4
694 -10 69 -19 74 -32 77 -221 l3 -169 372 2 372 3 3 335 c2 311 1 340 -18
400 -41 135 -166 241 -335 285 -51 13 -204 15 -1170 14 -1026 0 -1115 -2
-1170 -18z"/>
<path d="M1825 5954 l-1811 -1799 1810 -3 c995 -1 1811 -1 1813 1 2 2 2 813 1
1802 l-3 1798 -1810 -1799z"/>
<path d="M1367 2283 c743 -747 1556 -1565 1806 -1818 l456 -460 1 1818 0 1817
-1806 0 -1806 0 1349 -1357z"/>
<path d="M4190 1828 l0 -1803 143 141 c78 77 873 866 1767 1754 894 887 1647
1635 1675 1662 l50 48 -1818 0 -1817 0 0 -1802z m1501 315 c-574 -571 -1048
-1039 -1052 -1041 -5 -2 -9 457 -9 1037 l0 1041 1052 0 1052 0 -1043 -1037z"/>
<path d="M8250 3505 l0 -115 135 0 135 0 0 -585 0 -585 170 0 170 0 0 585 0
585 140 0 140 0 0 115 0 115 -445 0 -445 0 0 -115z"/>
<path d="M9300 2920 l0 -700 415 0 415 0 0 115 0 115 -245 0 -245 0 0 180 0
180 198 2 197 3 3 118 3 117 -201 0 -200 0 0 170 0 170 235 0 235 0 0 115 0
115 -405 0 -405 0 0 -700z"/>
<path d="M10320 2920 l0 -700 170 0 170 0 0 260 0 260 28 0 c26 -1 32 -12 142
-258 l115 -257 183 -3 c100 -1 182 0 182 3 0 3 -59 122 -130 265 -113 225
-128 261 -113 266 61 21 107 51 128 83 41 63 47 111 43 372 -3 230 -4 246 -25
286 -13 23 -38 54 -57 68 -67 51 -99 55 -483 55 l-353 0 0 -700z m551 460 c18
-10 19 -23 19 -204 0 -168 -2 -195 -16 -200 -9 -3 -60 -6 -115 -6 l-99 0 0
210 0 210 96 0 c52 0 104 -5 115 -10z"/>
<path d="M11470 2920 l0 -700 170 0 170 0 0 261 0 260 31 -3 c30 -3 34 -10
147 -260 l116 -258 183 0 183 0 -130 260 c-72 144 -128 265 -125 270 3 5 18
11 34 15 43 9 107 69 126 118 14 37 16 82 13 318 l-3 276 -28 42 c-20 31 -45
50 -85 69 l-57 27 -372 3 -373 3 0 -701z m564 454 c13 -13 16 -45 16 -198 0
-128 -4 -186 -12 -194 -8 -8 -49 -12 -120 -12 l-108 0 0 210 0 210 104 0 c82
0 108 -3 120 -16z"/>
<path d="M12930 3617 c0 -6 -330 -1360 -336 -1379 -5 -17 7 -18 165 -18 94 0
171 2 171 4 0 5 38 193 45 224 5 22 7 22 175 22 168 0 170 0 175 -22 7 -31 45
-219 45 -224 0 -8 340 -4 340 4 0 4 -77 319 -172 700 l-173 692 -217 0 c-120
0 -218 -2 -218 -3z m280 -622 c29 -143 55 -266 57 -272 4 -10 -23 -13 -117
-13 -112 0 -122 2 -118 18 3 9 29 135 59 279 30 144 57 259 60 255 3 -4 30
-124 59 -267z"/>
<path d="M14072 3601 c-66 -23 -117 -70 -137 -129 -23 -68 -23 -1038 0 -1103
20 -55 58 -96 115 -123 41 -19 65 -21 290 -24 159 -3 263 0 296 8 77 17 137
59 165 116 24 48 24 53 24 339 l0 290 -140 3 -140 2 -87 -104 c-49 -58 -88
-108 -88 -111 0 -3 25 -5 55 -5 l55 0 0 -148 c0 -102 -4 -152 -12 -160 -8 -8
-45 -12 -100 -12 -76 0 -89 2 -98 19 -6 13 -10 177 -10 465 0 391 2 446 16
460 19 20 173 23 192 4 8 -8 12 -48 12 -115 0 -57 3 -103 7 -103 11 0 317 161
331 174 18 17 0 126 -28 171 -55 90 -118 105 -424 105 -207 -1 -248 -3 -294
-19z"/>
<path d="M15060 2920 l0 -700 170 0 170 0 0 260 0 260 28 0 c26 0 32 -12 143
-258 l115 -257 182 -3 c100 -1 182 0 182 3 0 3 -59 122 -130 265 -111 223
-128 261 -113 266 57 16 110 54 138 99 l30 48 3 254 c4 299 -3 338 -67 396
-70 63 -100 67 -498 67 l-353 0 0 -700z m560 450 c18 -18 20 -33 20 -194 0
-145 -3 -177 -16 -190 -12 -13 -38 -16 -120 -16 l-104 0 0 210 0 210 100 0
c87 0 103 -3 120 -20z"/>
<path d="M16365 3604 c-68 -21 -113 -58 -139 -113 -20 -45 -21 -60 -24 -534
-2 -310 1 -508 8 -544 14 -81 47 -125 117 -160 l58 -28 258 -3 c290 -4 339 4
404 61 74 65 73 49 73 633 0 368 -3 531 -12 555 -19 57 -46 86 -106 116 l-57
28 -265 2 c-216 2 -274 -1 -315 -13z m399 -230 c14 -14 16 -69 16 -454 l0
-439 -22 -15 c-26 -18 -141 -22 -182 -6 l-26 10 0 449 c0 418 1 451 18 460 29
17 178 14 196 -5z"/>
<path d="M17370 2975 c0 -712 -1 -697 62 -732 30 -16 64 -18 393 -18 393 0
396 0 439 58 21 28 21 37 24 683 l3 654 -176 0 -175 0 0 -575 0 -575 -26 -10
c-41 -16 -156 -12 -182 6 l-22 15 0 570 0 569 -170 0 -170 0 0 -645z"/>
<path d="M18540 2920 l0 -700 170 0 170 0 0 244 0 245 253 3 c279 3 294 7 316
70 17 49 15 730 -3 772 -27 65 -35 66 -495 66 l-411 0 0 -700z m562 453 c16
-14 18 -35 18 -209 0 -235 7 -224 -142 -224 l-98 0 0 225 0 225 102 0 c80 0
105 -3 120 -17z"/>
</g>
</svg>
